<svg width="19" height="21" viewBox="0 0 19 21" fill="none" xmlns="http://www.w3.org/2000/svg">
<g clip-path="url(#clip0_30_135)">
<path d="M9.3385 4.63095C7.89223 4.63095 6.47843 5.05982 5.2759 5.86333C4.07336 6.66684 3.1361 7.80889 2.58264 9.14508C2.02917 10.4813 1.88436 11.9516 2.16651 13.37C2.44867 14.7885 3.14511 16.0915 4.16779 17.1142C5.19046 18.1368 6.49342 18.8333 7.91191 19.1154C9.33039 19.3976 10.8007 19.2528 12.1369 18.6993C13.4731 18.1459 14.6151 17.2086 15.4186 16.0061C16.2221 14.8035 16.651 13.3897 16.651 11.9435C16.649 10.0047 15.8779 8.14591 14.507 6.77499C13.136 5.40408 11.2773 4.633 9.3385 4.63095ZM9.3385 18.131C8.11473 18.131 6.91844 17.7681 5.90091 17.0882C4.88338 16.4083 4.09032 15.4419 3.622 14.3113C3.15368 13.1807 3.03115 11.9366 3.2699 10.7363C3.50864 9.53607 4.09794 8.43357 4.96328 7.56823C5.82862 6.70289 6.93113 6.11359 8.13138 5.87484C9.33164 5.6361 10.5757 5.75863 11.7064 6.22695C12.837 6.69526 13.8033 7.48833 14.4832 8.50586C15.1631 9.52339 15.526 10.7197 15.526 11.9435C15.5241 13.5839 14.8717 15.1566 13.7117 16.3166C12.5517 17.4766 10.979 18.1291 9.3385 18.131ZM13.276 11.9435C13.276 12.7222 13.0451 13.4835 12.6124 14.131C12.1798 14.7785 11.5648 15.2832 10.8453 15.5812C10.1258 15.8792 9.33414 15.9572 8.57034 15.8053C7.80654 15.6534 7.10494 15.2784 6.55427 14.7277C6.0036 14.177 5.62859 13.4754 5.47666 12.7116C5.32473 11.9478 5.40271 11.1561 5.70073 10.4366C5.99875 9.71715 6.50343 9.1022 7.15095 8.66954C7.79847 8.23688 8.55974 8.00595 9.3385 8.00595C10.3825 8.00707 11.3833 8.42227 12.1215 9.16045C12.8597 9.89863 13.2749 10.8995 13.276 11.9435Z" fill="#22C55E"/>
</g>
<defs>
<clipPath id="clip0_30_135">
<rect width="18" height="18" fill="white" transform="translate(0.338501 2.94345)"/>
</clipPath>
</defs>
</svg>
