<svg xmlns="http://www.w3.org/2000/svg" x="0px" y="0px" width="100" height="100" viewBox="0 0 48 48">
<path fill="#999" d="M20.298,3.534L14.76,9.071l9.254,9.259l9.238-9.248l-5.548-5.548C26.68,2.511,25.34,2,24,2	S21.321,2.511,20.298,3.534z"></path><linearGradient id="hOUy0TvJU800mlb9m3JIDa_ZLhUT4h37jI9_gr1" x1="7.527" x2="31.104" y1="16.666" y2="40.635" gradientUnits="userSpaceOnUse"><stop offset="0" stop-color="#4c4c4c"></stop><stop offset=".541" stop-color="#414141"></stop><stop offset="1" stop-color="#343434"></stop></linearGradient><path fill="url(#hOUy0TvJU800mlb9m3JIDa_ZLhUT4h37jI9_gr1)" d="M14.76,9.071L3.534,20.298C2.512,21.32,2,22.66,2,24s0.511,2.68,1.534,3.702l5.562,5.562	L24.014,18.33L14.76,9.071z"></path><linearGradient id="hOUy0TvJU800mlb9m3JIDb_ZLhUT4h37jI9_gr2" x1="24.014" x2="42.406" y1="18.253" y2="18.253" gradientUnits="userSpaceOnUse"><stop offset="0" stop-color="#1d59b3"></stop><stop offset="1" stop-color="#195bbc"></stop></linearGradient><path fill="url(#hOUy0TvJU800mlb9m3JIDb_ZLhUT4h37jI9_gr2)" d="M42.406,18.237l-9.154-9.155l-9.238,9.248l9.087,9.094L42.406,18.237z"></path><linearGradient id="hOUy0TvJU800mlb9m3JIDc_ZLhUT4h37jI9_gr3" x1="33.101" x2="45.999" y1="25.743" y2="25.743" gradientUnits="userSpaceOnUse"><stop offset="0" stop-color="#42a3f2"></stop><stop offset="1" stop-color="#42a4eb"></stop></linearGradient><path fill="url(#hOUy0TvJU800mlb9m3JIDc_ZLhUT4h37jI9_gr3)" d="M44.467,20.298l-2.061-2.061l-9.305,9.188l5.82,5.824l5.545-5.545	c1.014-1.014,1.525-2.34,1.534-3.67C46.009,22.682,45.498,21.329,44.467,20.298z"></path><linearGradient id="hOUy0TvJU800mlb9m3JIDd_ZLhUT4h37jI9_gr4" x1="9.096" x2="38.921" y1="32.165" y2="32.165" gradientUnits="userSpaceOnUse"><stop offset="0" stop-color="#3079d6"></stop><stop offset="1" stop-color="#297cd2"></stop></linearGradient><path fill="url(#hOUy0TvJU800mlb9m3JIDd_ZLhUT4h37jI9_gr4)" d="M9.096,33.264l11.202,11.202C21.321,45.489,22.661,46,24,46s2.68-0.511,3.702-1.534	l11.218-11.218L24.013,18.33L9.096,33.264z"></path>
</svg>